<?xml version="1.0" encoding="UTF-8" standalone="no"?>
<!-- Generator: Adobe Illustrator 19.0.0, SVG Export Plug-In . SVG Version: 6.00 Build 0)  -->

<svg
   xmlns:dc="http://purl.org/dc/elements/1.1/"
   xmlns:cc="http://creativecommons.org/ns#"
   xmlns:rdf="http://www.w3.org/1999/02/22-rdf-syntax-ns#"
   xmlns:svg="http://www.w3.org/2000/svg"
   xmlns="http://www.w3.org/2000/svg"
   xmlns:sodipodi="http://sodipodi.sourceforge.net/DTD/sodipodi-0.dtd"
   xmlns:inkscape="http://www.inkscape.org/namespaces/inkscape"
   version="1.1"
   id="Capa_1"
   x="0px"
   y="0px"
   viewBox="0 0 512 512"
   style="enable-background:new 0 0 512 512;"
   xml:space="preserve"
   sodipodi:docname="avatar_me_3.svg"
   inkscape:version="0.92.2 5c3e80d, 2017-08-06"
   inkscape:export-filename="/home/kelvinmaues/Projects/kelvinmaues.github.io/src/assets/avatar_me.png"
   inkscape:export-xdpi="96"
   inkscape:export-ydpi="96"><metadata
     id="metadata4245"><rdf:RDF><cc:Work
         rdf:about=""><dc:format>image/svg+xml</dc:format><dc:type
           rdf:resource="http://purl.org/dc/dcmitype/StillImage" /></cc:Work></rdf:RDF></metadata><defs
     id="defs4243" /><sodipodi:namedview
     pagecolor="#ffffff"
     bordercolor="#666666"
     borderopacity="1"
     objecttolerance="10"
     gridtolerance="10"
     guidetolerance="10"
     inkscape:pageopacity="0"
     inkscape:pageshadow="2"
     inkscape:window-width="1366"
     inkscape:window-height="694"
     id="namedview4241"
     showgrid="false"
     inkscape:zoom="0.65186406"
     inkscape:cx="-108.90492"
     inkscape:cy="379.57144"
     inkscape:window-x="0"
     inkscape:window-y="0"
     inkscape:window-maximized="1"
     inkscape:current-layer="Capa_1" /><rect
     x="198.961"
     y="203.04"
     style="fill:#B48764;"
     width="114.07"
     height="97.77"
     id="rect4178" /><path
     style="fill:#966D50;"
     d="M198.957,243.307c16.476,10.564,36.017,16.766,57.043,16.766c21.016,0,40.551-6.198,57.023-16.755  V203.04H198.957V243.307z"
     id="path4180" /><path
     style="fill:#0066ff"
     d="M420.638,504.5l6.421-168.462c0.837-20.91-11.728-40.035-31.253-47.566l-74.169-25.446  c-3.017-1.035-6.46,0.142-7.947,2.963c-10.918,20.706-32.653,34.823-57.689,34.823s-46.771-14.117-57.689-34.823  c-1.488-2.821-4.931-3.998-7.947-2.963l-74.169,25.446c-19.525,7.531-32.091,26.656-31.254,47.566l6.42,168.462H420.638z"
     id="path4182" /><g
     id="g4188"><path
       style="fill:#0066ff;opacity:0.99"
       d="M158.23,374.052l-65.963-65.611c-5.001,8.097-7.725,17.622-7.326,27.597L91.362,504.5h66.868   V374.052z"
       id="path4184" /><path
       style="fill:#0066ff"
       d="M353.771,374.052l65.963-65.611c5.001,8.097,7.725,17.622,7.326,27.597L420.639,504.5h-66.868   V374.052z"
       id="path4186" /></g><path
     style="fill:#C39772;"
     d="M345.623,121.567V97.123C345.623,47.626,305.497,7.5,256,7.5s-89.623,40.126-89.623,89.623v24.443  h-0.286c-0.004,0-0.008,0.002-0.012,0.002c-0.893,0.016-1.805,0.11-2.734,0.29c-7.93,1.532-13.273,9.113-13.273,17.189v5.904  c0,7.793,4.99,15.145,12.578,16.917c1.71,0.399,3.373,0.512,4.966,0.385c4.051-0.323,7.588,2.625,8.317,6.622  c6.927,37.962,40.093,66.755,80.057,66.755s73.13-28.793,80.057-66.755c0.703-3.85,4.026-6.654,7.887-6.573h1.679  c8.999,0,16.295-7.296,16.295-16.295v-8.148C361.908,128.864,354.618,121.573,345.623,121.567z"
     id="path4190" /><g
     id="g4196"><path
       style="fill:#B48764;"
       d="M207.116,154.156v-65.18c0-36.085,21.373-67.106,52.108-81.313C258.145,7.624,257.089,7.5,256,7.5   c-49.497,0-89.623,40.126-89.623,89.623v24.443h-0.286c-0.004,0-0.008,0.002-0.012,0.002c-0.893,0.016-1.805,0.11-2.734,0.29   c-7.93,1.532-13.273,9.113-13.273,17.189v5.904c0,7.793,4.99,15.145,12.578,16.917c1.71,0.399,3.373,0.512,4.966,0.385   c4.051-0.323,7.588,2.625,8.317,6.622c6.927,37.962,40.093,66.755,80.057,66.755c1.101,0,2.175-0.103,3.265-0.147   C228.503,221.284,207.116,190.253,207.116,154.156z"
       id="path4192" /><path
       style="fill:#241c1c"
       d="M256,7.5c-49.497,0-89.623,40.126-89.623,89.623v24.443h10.779c3.332,0,6.328-2.028,7.565-5.122   l10.149-25.373c2.475-6.187,8.466-10.243,15.129-10.243H302c6.663,0,12.655,4.056,15.129,10.243l10.149,25.373   c1.237,3.093,4.233,5.122,7.565,5.122h10.779V97.123C345.623,47.626,305.497,7.5,256,7.5z"
       id="path4194" /></g><path
     style="fill:#241c1c"
     d="M166.378,97.123v24.443h10.779c3.332,0,6.328-2.028,7.565-5.122l10.149-25.373  c2.152-5.38,7.011-8.97,12.611-9.862c2.82-32.725,23.239-60.372,51.742-73.547C258.145,7.624,257.089,7.5,256,7.5  C206.504,7.5,166.378,47.626,166.378,97.123z"
     id="path4198" /><path
     style="fill:#DBD9DC;"
     d="M346.503,504.5H165.497c-8.648,0-15.79-6.756-16.27-15.391l-6.337-114.066  c-0.519-9.34,6.915-17.199,16.27-17.199h193.68c9.355,0,16.789,7.859,16.27,17.199l-6.337,114.066  C362.293,497.744,355.151,504.5,346.503,504.5z"
     id="path4200" /><circle
     style="fill:#FFFFFF;"
     cx="256"
     cy="435.25"
     r="20.369"
     id="circle4202" /><path
     style="fill:#ffffff"
     d="M256,333.402c41.257,0,76.471-25.591,90.826-61.734l-25.191-8.642  c-3.017-1.035-6.459,0.142-7.947,2.963c-10.918,20.706-32.654,34.823-57.689,34.823s-46.771-14.117-57.689-34.823  c-1.488-2.821-4.93-3.998-7.947-2.963l-25.191,8.642C179.53,307.811,214.743,333.402,256,333.402z"
     id="path4204" /><path
     d="M 443.395,497 H 428.12 l 6.435,-160.662 c 0.966,-24.127 -13.521,-46.175 -36.049,-54.863 -0.087,-0.034 -0.176,-0.066 -0.265,-0.097 l -77.707,-26.66 v -39.1 c 11.506,-12.141 19.679,-27.595 22.883,-45.036 0.043,-0.202 0.393,-0.542 0.507,-0.585 2.145,0.157 4.32,0.014 6.464,-0.424 11.027,-2.258 19.031,-12.51 19.031,-24.377 v -6.349 c 0,-10.673 -6.701,-19.994 -16.295,-23.261 V 97.123 C 353.123,43.569 309.554,0 256,0 202.446,0 158.877,43.569 158.877,97.123 v 18.417 c -9.609,3.2 -16.295,12.533 -16.295,23.401 v 6.253 c 0,11.868 8.004,22.12 19.032,24.377 2.144,0.439 4.318,0.582 6.369,0.421 0.209,0.045 0.558,0.386 0.602,0.587 3.203,17.442 11.377,32.896 22.883,45.037 v 39.1 l -77.707,26.66 c -0.089,0.03 -0.177,0.063 -0.265,0.097 -22.528,8.688 -37.015,30.736 -36.049,54.863 L 83.881,497 H 68.606 c -4.142,0 -7.5,3.358 -7.5,7.5 0,4.142 3.358,7.5 7.5,7.5 h 374.787 c 4.142,0 7.5,-3.358 7.5,-7.5 0,-4.142 -3.357,-7.5 -7.498,-7.5 z m -73.134,-7.475 6.337,-114.065 c 0.215,-3.861 -0.537,-7.698 -2.115,-11.171 l 43.067,-43.067 c 1.501,4.59 2.216,9.491 2.015,14.516 L 413.106,497 h -44.495 c 0.928,-2.33 1.504,-4.842 1.65,-7.475 z M 206.467,228.292 c 14.245,9.567 31.331,15.095 49.533,15.095 18.202,0 35.288,-5.527 49.533,-15.095 v 36.903 c -10.313,17.297 -29,28.117 -49.533,28.117 -20.533,0 -39.22,-10.819 -49.533,-28.117 z M 166.98,155.037 c -0.772,0.057 -1.564,0.003 -2.358,-0.16 -4.014,-0.821 -7.04,-4.984 -7.04,-9.682 v -6.253 c 0,-4.686 3.072,-8.759 7.146,-9.474 2.712,-0.476 4.783,0.3 6.043,1.035 3.578,2.086 8.17,0.878 10.257,-2.701 2.086,-3.578 0.877,-8.17 -2.701,-10.257 -1.412,-0.823 -2.908,-1.473 -4.449,-1.984 V 97.123 C 173.878,51.84 210.717,15 256,15 c 45.283,0 82.123,36.84 82.123,82.123 v 17.971 c -0.442,0.088 -0.885,0.175 -1.323,0.279 -4.032,0.949 -6.53,4.987 -5.581,9.019 0.95,4.032 4.985,6.531 9.02,5.582 2.819,-0.664 5.727,-0.747 7.031,-0.487 4.076,0.811 7.149,4.834 7.149,9.359 v 6.349 c 0,4.698 -3.026,8.861 -7.04,9.682 -0.794,0.163 -1.588,0.217 -2.358,0.16 -7.737,-0.573 -14.932,5.068 -16.358,12.834 -6.44,35.065 -37,60.516 -72.663,60.516 -35.663,0 -66.222,-25.45 -72.663,-60.516 -1.424,-7.766 -8.617,-13.403 -16.357,-12.834 z m -48.213,140.482 42.232,-14.489 c 17.45,36.493 54.336,59.872 95.001,59.872 14.646,0 28.823,-2.952 42.138,-8.774 3.795,-1.66 5.526,-6.082 3.867,-9.877 -1.66,-3.795 -6.083,-5.526 -9.876,-3.867 -11.408,4.989 -23.564,7.518 -36.128,7.518 -34.286,0 -65.428,-19.388 -80.69,-49.782 l 16.822,-5.771 c 11.29491,20.80134 31.95981,34.74675 55.40348,37.47422 2.78563,0.32408 5.61049,0.48978 8.46352,0.48978 26.864,0 51.23,-14.69 63.867,-37.964 l 16.825,5.772 c -5.077,10.074 -12.086,19.255 -20.512,26.796 -3.086,2.763 -3.349,7.504 -0.586,10.59 1.481,1.655 3.532,2.498 5.591,2.498 1.781,0 3.568,-0.63 5,-1.912 10.326,-9.242 18.83,-20.602 24.809,-33.066 l 42.24,14.492 c 6.673,2.599 12.379,6.798 16.759,12.049 l -45.717,45.717 c -3.479,-1.903 -7.416,-2.94 -11.435,-2.94 H 159.16 c -3.954,0 -7.828,1.006 -11.265,2.851 l -45.88,-45.636 c 4.379,-5.247 10.082,-9.444 16.752,-12.041 z m -26.332,40.219 c -0.202,-5.034 0.516,-9.942 2.022,-14.539 l 43.141,42.911 c -1.634,3.52 -2.415,7.422 -2.196,11.35 l 6.337,114.065 c 0.146,2.634 0.723,5.146 1.65,7.476 H 98.894 Z M 165.497,497 c -4.666,0 -8.523,-3.649 -8.782,-8.307 l -6.337,-114.066 c -0.135,-2.438 0.714,-4.758 2.392,-6.532 1.678,-1.774 3.948,-2.751 6.39,-2.751 h 193.68 c 2.442,0 4.711,0.977 6.39,2.751 1.678,1.774 2.527,4.094 2.392,6.532 l -6.337,114.066 c -0.259,4.658 -4.116,8.307 -8.782,8.307 z"
     id="path4206"
     inkscape:connector-curvature="0"
     sodipodi:nodetypes="scccccccccssccsscsscccccccccsssssscccccccccsccsccccsscccccssscccccsscccsccccscccsccssccccscccccsscccccccccccsccssscccss" /><path
     d="M256,407.377c-15.367,0-27.869,12.502-27.869,27.869c0,15.367,12.502,27.869,27.869,27.869s27.869-12.502,27.869-27.869  C283.869,419.879,271.367,407.377,256,407.377z M256,448.115c-7.096,0-12.869-5.773-12.869-12.869  c0-7.096,5.773-12.869,12.869-12.869s12.869,5.773,12.869,12.869C268.869,442.342,263.096,448.115,256,448.115z"
     id="path4208" /><g
     id="g4210" /><g
     id="g4212" /><g
     id="g4214" /><g
     id="g4216" /><g
     id="g4218" /><g
     id="g4220" /><g
     id="g4222" /><g
     id="g4224" /><g
     id="g4226" /><g
     id="g4228" /><g
     id="g4230" /><g
     id="g4232" /><g
     id="g4234" /><g
     id="g4236" /><g
     id="g4238" /><path
     inkscape:connector-curvature="0"
     d="m 238.71291,154.1898 c 10.39906,-5.35642 13.98938,-23.24167 14.14384,-24.04011 0.003,-0.0124 0.32952,-1.19935 3.63265,-1.19935 l 0.26314,-0.002 c 2.54801,0 3.34318,0.82667 3.42328,1.3857 0.15444,0.75552 3.8832,18.58091 14.11522,23.85603 6.8923,3.55063 15.13125,4.29485 20.82792,4.29485 7.30762,0 14.64727,-1.26259 18.26505,-3.14406 7.80302,-4.05544 8.49637,-6.98945 11.33269,-23.98479 0.10755,-0.64032 0.29062,-1.18127 0.5469,-1.60591 0.0801,-0.13325 0.21968,-0.28459 0.41303,-0.49464 0.74597,-0.79392 1.87297,-1.99553 1.80432,-4.77934 -0.007,-0.35122 0.005,-0.95542 0.0217,-1.62963 l 0.003,-0.16149 c 0.0274,-1.18355 0.0549,-2.50939 0.0115,-3.26716 -0.24714,-4.17176 -3.91297,-5.85334 -5.7699,-6.15035 -7.00213,-1.4207 -14.90585,-2.14122 -23.49148,-2.14122 -3.70357,0 -7.52958,0.13778 -11.36816,0.40995 l -0.67276,0.0474 c -7.82476,0.54547 -12.13588,0.847 -17.37489,3.16326 -1.06061,0.46868 -2.23793,1.03222 -3.50449,1.67368 -1.79974,0.91589 -4.47587,1.93906 -5.84427,2.23607 -2.30888,0.50256 -3.67383,0.50369 -5.98384,-10e-4 -1.36267,-0.29702 -4.03767,-1.32019 -5.84197,-2.23495 -1.26886,-0.64372 -2.44732,-1.20725 -3.50221,-1.67368 -5.23902,-2.31626 -9.55014,-2.61666 -17.3852,-3.16551 l -0.65902,-0.0451 c -3.83401,-0.26991 -7.65544,-0.40768 -11.35901,-0.40768 -8.59593,0 -16.48591,0.71712 -23.40795,2.12315 -1.91872,0.30943 -5.612,1.99891 -5.85914,6.16277 -0.0482,0.76569 -0.0172,2.15476 0.008,3.2649 l 0.008,0.48786 c 0.0114,0.54435 0.0206,1.0198 0.0138,1.31004 -0.0687,2.78833 1.05718,3.98768 1.83177,4.81321 0.17162,0.18522 0.30892,0.33315 0.38786,0.46529 0.25286,0.41673 0.43593,0.95768 0.54461,1.60365 2.8386,16.99308 3.53196,19.92822 11.33155,23.98253 3.6132,1.88146 10.95399,3.14406 18.26733,3.14406 5.69323,-0.001 13.92987,-0.74536 20.82447,-4.29599 z m 29.90894,-29.84037 c 0.18649,-0.45399 2.3695,-4.46199 21.6185,-5.56874 3.32715,-0.19086 6.13946,-0.28346 8.5982,-0.28346 10.71946,0 14.06148,1.7979 15.98021,4.69576 1.14643,1.73353 1.95418,5.54616 1.96219,7.88501 0.0241,5.30222 -1.02171,14.71634 -8.29043,18.19469 -3.43928,1.64318 -8.62796,2.62456 -13.88185,2.62456 -9.99291,0 -17.93667,-3.28183 -21.24895,-8.78056 -7.14514,-11.84558 -4.75733,-18.71193 -4.73787,-18.76726 z m -72.40113,6.73196 c 0.0101,-2.3445 0.81806,-6.16051 1.96106,-7.8884 1.91986,-2.899 5.2619,-4.69689 15.98019,-4.69689 2.46105,0 5.27332,0.0926 8.59706,0.28459 18.85312,1.08416 21.36336,4.94535 21.65855,5.6636 0.024,0.0689 2.26425,7.00413 -4.77106,18.67466 -3.31457,5.49873 -11.25833,8.78057 -21.24781,8.78057 -5.25616,0 -10.44598,-0.98139 -13.88527,-2.62458 -7.26528,-3.47495 -8.31447,-12.8902 -8.29272,-18.19355 z"
     id="path4251"
     style="stroke-width:1.13671207" /></svg>